<svg xmlns="http://www.w3.org/2000/svg" viewBox="0 0 760 220" role="img" aria-labelledby="title">
<title>NexusOS logo dark</title>
<defs>
  <linearGradient id="g1" x1="0" y1="0" x2="1" y2="1">
    <stop offset="0" stop-color="#A855F7"/>
    <stop offset="0.48" stop-color="#7C3AED"/>
    <stop offset="1" stop-color="#2563EB"/>
  </linearGradient>
  <linearGradient id="g2" x1="0" y1="0" x2="1" y2="1">
    <stop offset="0" stop-color="#5B21B6"/>
    <stop offset="1" stop-color="#1D4ED8"/>
  </linearGradient>
</defs>
<g transform="translate(18,8) scale(.76)">
  <path d="M48 55c0-8 4-15 11-19l45-26c10-6 22 1 22 13v63l-28 16V60L76 73v110l-28 16V55z" fill="url(#g1)"/>
  <path d="M208 57c0-8-4-15-11-19l-44-26c-10-6-23 1-23 13v62l28 16V62l22 13v108l-22 13-58-34v-35l58 34 22-13V75l28-16v-2z" fill="url(#g2)"/>
  <path d="M99 126l29-17 58 34v35l-29 17-58-34z" fill="url(#g1)"/>
</g>
<text x="235" y="102" font-family="Arial, Helvetica, sans-serif" font-size="70" font-weight="800" fill="#FFFFFF">Nexus</text>
<text x="459" y="102" font-family="Arial, Helvetica, sans-serif" font-size="70" font-weight="800" fill="url(#g1)">OS</text>
<text x="237" y="145" font-family="Tahoma, Arial, sans-serif" font-size="24" fill="#C7CBD8">نظام تشغيل الأعمال المتكامل</text>
<text x="237" y="183" font-family="Arial, Helvetica, sans-serif" font-size="14" letter-spacing="5" fill="#A7AEC2">CONNECT • MANAGE • GROW</text>
</svg>